<svg
      xmlns="http://www.w3.org/2000/svg"
      xmlnsSvgjs="http://svgjs.com/svgjs"
      xmlnsXlink="http://www.w3.org/1999/xlink"
      width="256"
      height="256"
      version="1.1"
    >
      <svg
        xmlns="http://www.w3.org/2000/svg"
        width="256"
        height="256"
        fillRule="evenodd"
        clipRule="evenodd"
        imageRendering="optimizeQuality"
        shapeRendering="geometricPrecision"
        textRendering="geometricPrecision"
        viewBox="0 0 6.827 6.827"
      >
        <path fill="none" d="M0 0h6.827v6.827H0z"></path>
        <path fill="none" d="M.853.853h5.12v5.12H.853z"></path>
        <path fill="none" d="M.853.853h5.12v5.12H.853z"></path>
        <path fill="none" d="M.853.853h5.12v5.12H.853z"></path>
        <path
          fill="#0e78ff"
          d="M3.601 2.8h.669v3.12H3.6z"
          className="color039be5 svgShape"
        ></path>
        <path
          fill="#509def"
          d="M2.339 2.8l.668-.127V5.92h-.668z"
          className="coloref5350 svgShape"
        ></path>
        <path
          fill="#258bf9"
          d="M1.076 4.152l.668-.237V5.92h-.668zm3.788-2.02h.668V5.92h-.668z"
          className="colorf9a825 svgShape"
        ></path>
        <path
          fill="#c3dffd"
          d="M2.934 2.78l1.68.42.582-.97.527.317.028-1.64-1.435.796.527.316-.424.708-1.61-.403L1.08 4.052l-.004.566z"
          className="color7cb342 svgShape"
        ></path>
      </svg>
    </svg>